<svg width="106" height="19" viewBox="0 0 106 19" fill="none" xmlns="http://www.w3.org/2000/svg">
<path fill-rule="evenodd" clip-rule="evenodd" d="M75.1204 18.6459C75.1204 18.3204 84.3521 18.529 84.7296 18.8631C84.8145 18.9385 82.687 19 80.0023 19C77.2074 19 75.1204 18.8488 75.1204 18.6459ZM92.3611 18.6014C93.1768 18.4298 94.3447 18.2997 94.9564 18.3121L96.0687 18.3351L94.9564 18.6229C94.3447 18.7813 93.1768 18.9114 92.3611 18.9121L90.878 18.9133L92.3611 18.6014ZM32.204 18.363C32.5611 18.268 33.1447 18.268 33.5017 18.363C33.8588 18.4577 33.5666 18.5354 32.8529 18.5354C32.1392 18.5354 31.847 18.4577 32.204 18.363ZM6.03083 17.9953C4.74538 17.8362 4.62822 17.7313 4.82806 16.9209C4.98156 16.2982 4.84993 15.8943 4.39871 15.6039C3.89743 15.2815 3.86221 15.1367 4.2441 14.9756C4.59485 14.8278 4.49474 14.6404 3.90262 14.3375C2.79477 13.7707 2.56749 12.9625 3.45029 12.7279C4.47361 12.4556 4.54109 9.94884 3.52555 9.94884C3.13773 9.94884 2.82073 9.77914 2.82073 9.57171C2.82073 9.36429 2.47702 9.19458 2.05732 9.19458C1.63761 9.19458 1.39068 9.03543 1.50895 8.84046C1.62723 8.64586 1.42849 8.31172 1.06737 8.09788C0.446701 7.73056 0.44633 7.70831 1.05958 7.69737C1.41626 7.69134 1.70842 7.44582 1.70842 7.15166C1.70842 6.85788 1.91717 6.52977 2.17188 6.42304C2.45329 6.30462 2.30907 6.12737 1.80519 5.97162C1.34878 5.83019 1.06662 5.56431 1.17823 5.38027C1.2902 5.19661 1.19491 5.04614 0.966888 5.04614C0.738866 5.04614 0.647657 4.88925 0.764078 4.69767C0.880499 4.50571 0.681768 4.27792 0.322495 4.19118C-0.192872 4.06673 -0.110192 3.94114 0.712912 3.59682C1.28686 3.35697 2.18338 3.16048 2.70505 3.16048C3.50553 3.16048 3.58117 3.07261 3.19149 2.59478C2.93752 2.28365 2.32353 2.02908 1.8267 2.02908C1.25794 2.02908 1.01768 1.87371 1.17785 1.60971C1.318 1.37929 1.22086 1.05721 0.962068 0.894672C0.700677 0.730242 2.11256 0.475304 4.14066 0.320679C9.8071 -0.111513 87.038 -0.104727 90.6926 0.32822C93.8326 0.700071 93.8375 0.702335 91.9903 0.928991L90.1365 1.1564L92.2903 1.21561C93.6187 1.25219 94.3562 1.41926 94.2149 1.65195C94.0814 1.87144 94.4511 2.02908 95.0981 2.02908C95.7098 2.02908 96.3134 2.19879 96.4395 2.40622C96.5656 2.61364 97.1176 2.80032 97.6664 2.82106L98.6641 2.8584L97.7372 3.16048C96.8785 3.44031 96.9059 3.46709 98.108 3.52667C99.1847 3.57985 99.2792 3.64585 98.6641 3.91474C98.2563 4.09312 98.141 4.25077 98.4079 4.26547C98.6749 4.27981 98.7913 4.4597 98.6667 4.66486C98.5369 4.87831 98.6856 4.94167 99.0156 4.81307C99.8428 4.48987 99.7241 5.28788 98.8057 6.22203C98.1691 6.86957 98.1165 7.08529 98.5277 7.36059C98.9392 7.63628 98.8992 7.80561 98.3152 8.25892C97.6026 8.81179 97.6026 8.81783 98.3152 8.84724C98.7116 8.86346 98.8258 8.96265 98.5692 9.06787C97.689 9.42878 98.524 9.94884 99.9837 9.94884C100.787 9.94884 101.445 10.1186 101.445 10.326C101.445 10.5334 101.789 10.7031 102.208 10.7031C102.628 10.7031 102.876 10.86 102.76 11.0516C102.644 11.2435 102.842 11.4781 103.202 11.5735C103.62 11.6848 103.498 11.7628 102.862 11.7908C102.315 11.8149 101.618 12.0891 101.313 12.4002C101.007 12.7113 100.452 12.978 100.081 12.9923C99.7097 13.007 99.072 13.168 98.6641 13.3498C98.1302 13.5885 98.5451 13.6855 100.147 13.6964C101.371 13.7051 103.289 13.8522 104.411 14.0234C106.297 14.3115 106.367 14.3564 105.338 14.6226C104.726 14.7807 103.892 15.0533 103.484 15.2279C103.076 15.4025 102.075 15.6601 101.259 15.7997C98.0012 16.3582 97.5655 16.4932 96.8537 17.1679C96.1937 17.7936 95.4162 17.8712 89.6029 17.8927C86.0221 17.9059 82.3411 17.9248 81.4234 17.9342C75.8286 17.9931 70.5848 17.7611 71.4127 17.4915C72.284 17.2075 72.2662 17.1871 71.1128 17.1521C70.438 17.1313 69.9686 17.2501 70.0691 17.416C70.1699 17.582 61.2122 17.7136 50.1625 17.7083C39.1126 17.7034 24.9834 17.8052 18.7637 17.9354C12.5441 18.0651 6.81426 18.0922 6.03083 17.9953ZM69.4584 17.2637C69.3353 17.1385 69.0153 17.1249 68.748 17.2339C68.4521 17.3542 68.54 17.4436 68.9719 17.4617C69.3627 17.4779 69.5815 17.3889 69.4584 17.2637ZM47.9539 16.8866C47.8308 16.7613 47.5108 16.7478 47.2435 16.8568C46.9476 16.9771 47.0355 17.0664 47.4674 17.0845C47.8582 17.1008 48.077 17.0118 47.9539 16.8866ZM57.9724 16.8372C57.0036 16.7595 55.4189 16.7595 54.4501 16.8372C53.4813 16.9148 54.274 16.9786 56.2112 16.9786C58.1485 16.9786 58.9412 16.9148 57.9724 16.8372ZM63.5257 16.839C62.7564 16.7576 61.5885 16.7587 60.9304 16.8421C60.2719 16.9254 60.9015 16.9922 62.3289 16.9906C63.7564 16.9888 64.2947 16.9209 63.5257 16.839ZM53.7534 4.71577C54.3162 4.491 54.1679 4.35372 52.9689 3.98828C52.1558 3.74051 51.2233 3.53761 50.8963 3.53761C50.0254 3.53761 50.5489 4.59245 51.5155 4.78403C52.7309 5.02539 53 5.0171 53.7534 4.71577ZM45.0882 3.91474C45.0882 3.70732 44.713 3.54968 44.254 3.56401C43.458 3.58928 43.4539 3.60549 44.1613 3.91474C44.5691 4.09312 44.9447 4.25077 44.9955 4.26547C45.0463 4.27981 45.0882 4.12216 45.0882 3.91474ZM69.6931 3.34904C69.8102 3.03791 69.7446 2.78335 69.5474 2.78335C69.3498 2.78335 69.1881 3.03791 69.1881 3.34904C69.1881 3.66018 69.2537 3.91474 69.3338 3.91474C69.4139 3.91474 69.5756 3.66018 69.6931 3.34904ZM36.0893 3.30982C35.9662 3.18462 35.6463 3.17104 35.3789 3.28003C35.0831 3.40033 35.1709 3.48971 35.6029 3.50782C35.9937 3.52403 36.2124 3.43503 36.0893 3.30982ZM76.4181 3.16048C76.546 2.95004 76.2686 2.78599 75.7911 2.789C75.1022 2.79391 75.0436 2.86632 75.4911 3.16048C76.1812 3.61379 76.1426 3.61379 76.4181 3.16048ZM88.8388 2.99379C89.1447 2.92628 87.6431 2.87876 85.5019 2.88857C82.588 2.90177 82.1216 2.96211 83.648 3.12767C85.5501 3.33434 87.5322 3.28305 88.8388 2.99379ZM42.2148 2.91082C41.9601 2.80597 41.5429 2.80597 41.2879 2.91082C41.0331 3.01528 41.2415 3.10089 41.7513 3.10089C42.2611 3.10089 42.4699 3.01528 42.2148 2.91082ZM44.5421 2.79994C44.4216 2.60157 44.0779 2.53482 43.7787 2.65173C43.0123 2.95079 43.1024 3.16048 43.9978 3.16048C44.4175 3.16048 44.6626 2.99831 44.5421 2.79994ZM54.3155 2.99228C54.0304 2.70226 51.0539 2.62382 50.7836 2.89875C50.6419 3.04281 51.4161 3.16048 52.5036 3.16048C53.591 3.16048 54.4063 3.08468 54.3155 2.99228ZM59.477 2.96248C59.1852 2.66568 56.6157 2.62344 56.3332 2.91082C56.1983 3.04809 56.8942 3.16048 57.8797 3.16048C58.8652 3.16048 59.5841 3.07148 59.477 2.96248ZM72.6177 2.89422C72.1587 2.80447 71.4083 2.80447 70.9492 2.89422C70.4902 2.98436 70.8658 3.0579 71.7835 3.0579C72.7011 3.0579 73.0767 2.98436 72.6177 2.89422Z" fill="#2AF056"/>
</svg>
