<svg width="57" height="55" viewBox="0 0 57 55" fill="none" xmlns="http://www.w3.org/2000/svg">
<g clip-path="url(#clip0_222_142)">
<path d="M28.3898 0C12.7126 0 0 12.6073 0 28.1596C0 40.6015 8.13452 51.1568 19.4147 54.8803C20.8335 55.141 21.3545 54.2695 21.3545 53.5256C21.3545 52.8543 21.328 50.6358 21.316 48.2829C13.4177 49.9863 11.7511 44.9604 11.7511 44.9604C10.4597 41.7055 8.59898 40.8402 8.59898 40.8402C6.0233 39.0924 8.79314 39.1282 8.79314 39.1282C11.644 39.3269 13.1452 42.0301 13.1452 42.0301C15.6772 46.3352 19.7866 45.0905 21.4066 44.3712C21.6613 42.5509 22.3972 41.3088 23.209 40.6056C16.9034 39.8934 10.2745 37.4788 10.2745 26.6889C10.2745 23.6147 11.3835 21.1025 13.1997 19.1305C12.9049 18.4212 11.9333 15.5572 13.4747 11.6784C13.4747 11.6784 15.8587 10.9215 21.2839 14.5649C23.5483 13.9408 25.9771 13.628 28.3898 13.6174C30.8025 13.628 33.233 13.9408 35.5019 14.5649C40.9207 10.9215 43.3013 11.6784 43.3013 11.6784C44.8465 15.5572 43.8744 18.4212 43.5796 19.1305C45.3998 21.1025 46.5013 23.6145 46.5013 26.6889C46.5013 37.5045 39.8599 39.8861 33.5383 40.5831C34.5565 41.457 35.4638 43.1708 35.4638 45.7979C35.4638 49.5656 35.4308 52.5981 35.4308 53.5256C35.4308 54.275 35.9418 55.1531 37.3811 54.8766C48.6551 51.1489 56.7793 40.5973 56.7793 28.1596C56.7793 12.6073 44.0686 0 28.3898 0Z" fill="#161614"/>
<path d="M10.6329 40.114C10.5706 40.2538 10.3484 40.2957 10.1464 40.1999C9.94048 40.108 9.8247 39.9172 9.8915 39.7767C9.95273 39.6328 10.1749 39.5926 10.3804 39.6893C10.5869 39.7809 10.7044 39.9735 10.6329 40.114ZM12.0294 41.3499C11.8941 41.4744 11.6293 41.4166 11.4496 41.2198C11.2639 41.0235 11.2292 40.7611 11.3666 40.6345C11.5062 40.5102 11.7629 40.5683 11.9491 40.7648C12.1348 40.9634 12.1708 41.2242 12.0292 41.3501M12.9875 42.9312C12.8134 43.0511 12.5289 42.9387 12.3532 42.6882C12.1793 42.438 12.1793 42.1376 12.357 42.0173C12.5333 41.8969 12.8134 42.0051 12.9915 42.2536C13.1652 42.5082 13.1652 42.8086 12.9873 42.9314M14.6076 44.7627C14.4519 44.9327 14.1206 44.8872 13.8779 44.6549C13.6299 44.4279 13.5606 44.1056 13.7167 43.9354C13.8741 43.7649 14.2075 43.8128 14.4519 44.0431C14.6984 44.2697 14.7735 44.5944 14.6076 44.7627ZM16.7014 45.3811C16.6331 45.6015 16.3138 45.7017 15.9923 45.6081C15.6712 45.5116 15.461 45.2532 15.5258 45.0303C15.5926 44.8084 15.9132 44.7039 16.2372 44.8042C16.5578 44.9003 16.7682 45.1567 16.7014 45.3811ZM19.0847 45.6432C19.0928 45.8755 18.82 46.0681 18.4825 46.0723C18.1429 46.0796 17.8684 45.8917 17.8648 45.6633C17.8648 45.4288 18.1313 45.2379 18.4707 45.2324C18.8082 45.2258 19.0847 45.4124 19.0847 45.6432ZM21.4258 45.5542C21.4663 45.7808 21.2316 46.0136 20.8965 46.0754C20.567 46.135 20.2619 45.9952 20.2198 45.7706C20.1789 45.5383 20.418 45.3058 20.7469 45.2455C21.0826 45.1876 21.383 45.3239 21.4258 45.5542Z" fill="#161614"/>
</g>
<defs>
<clipPath id="clip0_222_142">
<rect width="57" height="55" fill="white"/>
</clipPath>
</defs>
</svg>
